<mxfile host="app.diagrams.net" modified="2023-01-27T15:30:56.875Z" agent="5.0 (Windows NT 10.0; Win64; x64) AppleWebKit/537.36 (KHTML, like Gecko) Chrome/109.0.0.0 Safari/537.36" etag="F8HYY7KFy0H2UvPFP9w1" version="20.8.11" type="github">
  <diagram name="第 1 页" id="Ez7TglN5HFs9FWs2geTk">
    <mxGraphModel dx="877" dy="535" grid="1" gridSize="10" guides="1" tooltips="1" connect="1" arrows="1" fold="1" page="1" pageScale="1" pageWidth="827" pageHeight="1169" math="1" shadow="0">
      <root>
        <mxCell id="0" />
        <mxCell id="1" parent="0" />
        <mxCell id="XV6iMVkWQSzFU_ryDK1X-22" value="" style="edgeStyle=orthogonalEdgeStyle;rounded=0;orthogonalLoop=1;jettySize=auto;html=1;" edge="1" parent="1" source="XV6iMVkWQSzFU_ryDK1X-2" target="XV6iMVkWQSzFU_ryDK1X-5">
          <mxGeometry relative="1" as="geometry" />
        </mxCell>
        <mxCell id="XV6iMVkWQSzFU_ryDK1X-2" value="$$ \forall \; S_{cps}\; S_{ssa}\; S\prime_{cps},\; S_{cps}\rightarrow S\prime_{cps},\; S_{cps}\sim S_{ssa} \Rightarrow $$ $$ \exists\; S\prime_{ssa},\; S_{ssa}\xrightarrow{+} S\prime_{ssa} \cup (S_{ssa}\xrightarrow{*} S\prime_{ssa} \cap M(S\prime_{cps})&amp;lt;M(S_{cps})),\; S\prime_{cps}\sim S\prime_{ssa}$$" style="rounded=0;whiteSpace=wrap;html=1;" vertex="1" parent="1">
          <mxGeometry x="200" y="220" width="480" height="60" as="geometry" />
        </mxCell>
        <mxCell id="XV6iMVkWQSzFU_ryDK1X-23" value="" style="edgeStyle=orthogonalEdgeStyle;rounded=0;orthogonalLoop=1;jettySize=auto;html=1;" edge="1" parent="1" source="XV6iMVkWQSzFU_ryDK1X-5" target="XV6iMVkWQSzFU_ryDK1X-6">
          <mxGeometry relative="1" as="geometry" />
        </mxCell>
        <mxCell id="XV6iMVkWQSzFU_ryDK1X-5" value="$$\mathtt{initial}(t_{cps})\sim \mathtt{initial}(t_{ssa}&lt;br style=&quot;border-color: var(--border-color);&quot;&gt;)$$" style="rounded=0;whiteSpace=wrap;html=1;" vertex="1" parent="1">
          <mxGeometry x="331.25" y="300" width="217.5" height="30" as="geometry" />
        </mxCell>
        <mxCell id="XV6iMVkWQSzFU_ryDK1X-6" value="$$\forall\; t_{cps}\; t_{ssa},\;&amp;nbsp;&lt;br&gt;\mathcal{G}_{proc}(t_{cps})=t_{ssa},\\ t_{cps}&lt;br&gt;\Downarrow B\Longrightarrow t_{ssa}\Downarrow B&lt;br&gt;$$" style="rounded=0;whiteSpace=wrap;html=1;" vertex="1" parent="1">
          <mxGeometry x="271.25" y="350" width="337.5" height="30" as="geometry" />
        </mxCell>
        <mxCell id="XV6iMVkWQSzFU_ryDK1X-7" value="$$B=terminate\, n$$" style="rounded=0;whiteSpace=wrap;html=1;" vertex="1" parent="1">
          <mxGeometry x="300" y="400" width="130" height="30" as="geometry" />
        </mxCell>
        <mxCell id="XV6iMVkWQSzFU_ryDK1X-8" value="$$B=diverge$$" style="rounded=0;whiteSpace=wrap;html=1;" vertex="1" parent="1">
          <mxGeometry x="450" y="400" width="140" height="30" as="geometry" />
        </mxCell>
        <mxCell id="XV6iMVkWQSzFU_ryDK1X-14" value="" style="endArrow=classicThin;html=1;strokeWidth=0.5;exitX=0.5;exitY=1;exitDx=0;exitDy=0;entryX=0.5;entryY=0;entryDx=0;entryDy=0;endFill=1;" edge="1" parent="1" source="XV6iMVkWQSzFU_ryDK1X-6" target="XV6iMVkWQSzFU_ryDK1X-7">
          <mxGeometry width="50" height="50" relative="1" as="geometry">
            <mxPoint x="390" y="410" as="sourcePoint" />
            <mxPoint x="455" y="430" as="targetPoint" />
          </mxGeometry>
        </mxCell>
        <mxCell id="XV6iMVkWQSzFU_ryDK1X-15" value="" style="endArrow=classicThin;html=1;strokeWidth=0.5;exitX=0.5;exitY=1;exitDx=0;exitDy=0;entryX=0.5;entryY=0;entryDx=0;entryDy=0;endFill=1;" edge="1" parent="1" source="XV6iMVkWQSzFU_ryDK1X-6" target="XV6iMVkWQSzFU_ryDK1X-8">
          <mxGeometry width="50" height="50" relative="1" as="geometry">
            <mxPoint x="465" y="540" as="sourcePoint" />
            <mxPoint x="395" y="560" as="targetPoint" />
          </mxGeometry>
        </mxCell>
        <mxCell id="XV6iMVkWQSzFU_ryDK1X-21" value="" style="edgeStyle=orthogonalEdgeStyle;rounded=0;orthogonalLoop=1;jettySize=auto;html=1;" edge="1" parent="1" source="XV6iMVkWQSzFU_ryDK1X-16" target="XV6iMVkWQSzFU_ryDK1X-2">
          <mxGeometry relative="1" as="geometry" />
        </mxCell>
        <mxCell id="XV6iMVkWQSzFU_ryDK1X-16" value="$$define\;&amp;nbsp;&lt;br&gt;S_{cps}\sim S_{ssa}$$" style="rounded=0;whiteSpace=wrap;html=1;" vertex="1" parent="1">
          <mxGeometry x="340" y="170" width="200" height="30" as="geometry" />
        </mxCell>
      </root>
    </mxGraphModel>
  </diagram>
</mxfile>
